<svg xmlns="http://www.w3.org/2000/svg" width="53.25" height="41" viewBox="0 0 53.25 41"><defs><style>.a{fill:#ffe600;}.b{fill:#847700;}.c{fill:#886d02;}.d,.e{stroke:none;}.e{fill:#707070;}</style></defs><g transform="translate(-1066 -1200)"><g transform="translate(1066 1200)"><g transform="translate(17.606 2.678)"><path d="M208.364,204.8a3.564,3.564,0,1,0,3.564,3.564A3.575,3.575,0,0,0,208.364,204.8Z" transform="translate(-190.543 -190.543)"/><path d="M17.822,0A17.822,17.822,0,1,0,35.644,17.822,17.874,17.874,0,0,0,17.822,0Zm0,24.95a7.129,7.129,0,1,1,7.129-7.129A7.15,7.15,0,0,1,17.822,24.95Z"/></g><g class="a" transform="translate(1 1.5)"><path class="d" d="M 37.5 37.4998893737793 L 0.5 37.4998893737793 L 0.5 0.5 L 37.4999885559082 0.5 L 37.5 13.31393051147461 C 37.00563812255859 13.17248821258545 36.49340057373047 13.1010799407959 35.96984100341797 13.1010799407959 C 32.90993118286133 13.1010799407959 30.4205207824707 15.58425998687744 30.4205207824707 18.63651084899902 C 30.4205207824707 21.68880081176758 32.90993118286133 24.17201995849609 35.96984100341797 24.17201995849609 C 36.49341583251953 24.17201995849609 37.00563812255859 24.10061264038086 37.5 23.95916748046875 L 37.5 37.4998893737793 Z"/><path class="e" d="M 37 36.9998893737793 L 37 24.58520698547363 C 36.66227722167969 24.64296722412109 36.31834030151367 24.67201995849609 35.96984100341797 24.67201995849609 C 32.63423156738281 24.67201995849609 29.9205207824707 21.96450042724609 29.9205207824707 18.63651084899902 C 29.9205207824707 15.30856037139893 32.63423156738281 12.6010799407959 35.96984100341797 12.6010799407959 C 36.31833267211914 12.6010799407959 36.66228103637695 12.63013362884521 37 12.68789196014404 L 36.99999237060547 1 L 1 1 L 1 36.9998893737793 L 37 36.9998893737793 M 38 38 L 37.9999885559082 37.9998893737793 L 0 37.9998893737793 L 0 0 L 37.9999885559082 0 L 38 14.02464008331299 C 37.3590202331543 13.74361991882324 36.67602920532227 13.6010799407959 35.96984100341797 13.6010799407959 C 33.18563079833984 13.6010799407959 30.9205207824707 15.85997009277344 30.9205207824707 18.63651084899902 C 30.9205207824707 21.41309928894043 33.18563079833984 23.67201995849609 35.96984100341797 23.67201995849609 C 36.67591094970703 23.67201995849609 37.35895919799805 23.52951049804688 38 23.24844932556152 L 38 37.9998893737793 L 38 38 Z"/></g><path class="b" d="M39.423,41H1.577A1.577,1.577,0,0,1,0,39.423V1.577A1.577,1.577,0,0,1,1.577,0H39.423a1.574,1.574,0,0,1,1.526,1.185l.019,14.794a.9.9,0,0,1-.131.484,1.586,1.586,0,0,1-.57.637,1.567,1.567,0,0,1-.844.246H37.531a3.154,3.154,0,1,0,0,6.308h1.892a1.567,1.567,0,0,1,.841.244,1.493,1.493,0,0,1,.713,1.2L41,39.507A1.576,1.576,0,0,1,39.423,41ZM3.154,3.154V37.846H37.846V26.808h-.315a6.308,6.308,0,1,1,0-12.615h.315V3.154Z" transform="translate(0 0)"/></g><g transform="translate(1073.531 1211.652)"><path class="c" d="M6.488,11.726H17.081a.584.584,0,0,0,.563-.425l2.345-8.208a.585.585,0,0,0-.564-.747H5.135L4.716.459A.586.586,0,0,0,4.143,0H.586a.586.586,0,1,0,0,1.173H3.672L5.79,10.7a1.758,1.758,0,0,0,.7,3.371H17.081a.586.586,0,1,0,0-1.173H6.488a.586.586,0,0,1,0-1.173Zm0,0" transform="translate(0 0)"/><path class="c" d="M151,361.763A1.759,1.759,0,1,0,152.759,360,1.761,1.761,0,0,0,151,361.763Zm0,0" transform="translate(-145.098 -345.933)"/><path class="c" d="M362,361.763A1.759,1.759,0,1,0,363.763,360,1.761,1.761,0,0,0,362,361.763Zm0,0" transform="translate(-347.855 -345.933)"/></g></g></svg>