<svg xmlns="http://www.w3.org/2000/svg" width="55.417" height="27.711" viewBox="0 0 55.417 27.711">
  <defs>
    <style>
      .cls-1 {
        fill: red;
      }

      .cls-2 {
        fill: #fff;
      }

      .cls-3 {
        fill: #ff0909;
      }
    </style>
  </defs>
  <g id="Grupo_32" data-name="Grupo 32" transform="translate(330.48 -164.051)">
    <path id="Trazado_31" data-name="Trazado 31" class="cls-1" d="M46.851,0A27.711,27.711,0,0,0,19.14,27.711H37.149a8.81,8.81,0,1,1,17.616,0H74.557A27.707,27.707,0,0,0,46.847,0Z" transform="translate(-349.62 164.051)"/>
    <path id="Trazado_42" data-name="Trazado 42" class="cls-2" d="M51.38,7.639l.941-.535c.152-.08.317-.178.5-.272l.616-.29.7-.335c.25-.107.517-.2.794-.312s.562-.228.865-.33l.946-.3.5-.156.513-.129,1.044-.254,1.12-.192.571-.094.58-.058c.388-.04.781-.089,1.173-.116l1.191-.045c.4-.022.8,0,1.191,0a10.4,10.4,0,0,1,1.173.067l1.16.116,1.12.178a10.185,10.185,0,0,1,1.075.214c.348.089.691.152,1.022.25.651.2,1.276.361,1.829.584l.8.294c.25.1.482.214.7.308.446.2.825.361,1.129.531l.959.509-.995-.446a10.449,10.449,0,0,0-1.151-.446c-.228-.08-.446-.178-.718-.263l-.8-.259c-.553-.2-1.182-.335-1.829-.513-.326-.085-.669-.138-1.017-.21s-.683-.125-1.048-.178l-1.106-.165-1.138-.1c-.379-.04-.772-.04-1.164-.049a11.435,11.435,0,0,0-1.173,0l-1.169.031c-.388,0-.776.067-1.16.1l-.571.054-.567.085-1.1.174-1.057.232-.513.112-.491.138-.946.263c-.3.094-.593.2-.892.294s-.549.187-.8.281l-.7.285-.625.254c-.187.08-.357.17-.513.241Z" transform="translate(-367.478 161.72)"/>
    <path id="Trazado_43" data-name="Trazado 43" class="cls-2" d="M75.928,11.749h0l-1.338-.584-1.338-.509c-.446-.143-.892-.3-1.374-.446a14.134,14.134,0,0,0-1.4-.343c-.468-.094-.937-.205-1.41-.272s-.946-.152-1.427-.187-.95-.1-1.432-.1-.959-.04-1.432,0-.968,0-1.441.054-.95.071-1.427.143-.946.134-1.414.232-.941.187-1.405.3-.932.245-1.387.388L56.34,10.9,55,11.437l-1.352.607,1.262-.714,1.311-.625c.446-.187.892-.352,1.338-.526s.928-.3,1.387-.446.941-.241,1.419-.352.955-.17,1.436-.254.968-.107,1.454-.165.986-.04,1.468-.085A10.028,10.028,0,0,1,66.19,8.9c.486.027.972.08,1.459.12s.959.138,1.441.21.955.2,1.427.3.937.272,1.4.406.914.326,1.374.491.892.393,1.338.584l1.169.642.138.089" transform="translate(-368.735 159.145)"/>
    <path id="Trazado_44" data-name="Trazado 44" class="cls-2" d="M76.184,16.176l-.834-.361c-.263-.125-.593-.245-.968-.384l-.593-.219L73.115,15c-.446-.161-.986-.281-1.53-.419-.272-.076-.562-.116-.848-.174s-.584-.125-.892-.161l-.923-.129-.955-.08C67.645,14,67.324,14,67,13.99a8.922,8.922,0,0,0-.977,0l-.99.027c-.326,0-.642.054-.964.08s-.633.067-.946.116-.625.089-.923.147c-.6.143-1.187.232-1.726.4l-.79.214-.727.245c-.473.147-.892.317-1.262.468l-.522.205-.446.2-.825.379.79-.446.419-.232.517-.241a11.041,11.041,0,0,1,1.24-.544l.727-.281.812-.268a17.843,17.843,0,0,1,1.735-.446c.308-.062.62-.107.937-.165a9.719,9.719,0,0,1,.968-.134c.326-.031.656-.071.986-.094l.99-.04h1a5.677,5.677,0,0,1,.99.058l.968.094.941.147a9.01,9.01,0,0,1,.892.183c.285.067.584.125.852.214.549.165,1.071.308,1.535.5l.669.245.589.268c.366.165.687.308.941.446Z" transform="translate(-369.982 156.529)"/>
    <path id="Trazado_45" data-name="Trazado 45" class="cls-2" d="M76.489,20.615l-.754-.321a9.329,9.329,0,0,0-.892-.343l-.54-.2-.584-.187c-.419-.147-.892-.254-1.383-.379-.245-.067-.5-.1-.767-.156s-.526-.112-.8-.143l-.834-.116-.861-.071c-.29-.031-.584-.031-.892-.04a8.5,8.5,0,0,0-.892,0l-.892.022c-.294,0-.584.049-.892.071a7.745,7.745,0,0,0-.856.107c-.281.045-.558.076-.83.129-.54.129-1.071.205-1.557.352l-.718.192-.656.219c-.424.134-.8.285-1.138.419l-.424.2-.388.178-.749.339.709-.41.379-.214.446-.223a10.42,10.42,0,0,1,1.12-.5l.656-.254.714-.228a14.888,14.888,0,0,1,1.57-.415c.277-.058.562-.1.848-.152a8.8,8.8,0,0,1,.892-.12c.317-.027.6-.062.892-.085l.892-.036H68.2a5.043,5.043,0,0,1,.892.054l.892.089.848.134a7.688,7.688,0,0,1,.812.165c.263.067.526.112.772.192.5.152.964.281,1.383.446l.6.223.531.241c.335.152.62.285.848.415Z" transform="translate(-371.25 153.937)"/>
    <path id="Trazado_46" data-name="Trazado 46" class="cls-2" d="M76.8,25.038l-.674-.281c-.214-.1-.477-.2-.781-.3l-.482-.165-.544-.165c-.375-.129-.794-.223-1.236-.335-.214-.058-.446-.089-.683-.134s-.446-.1-.714-.125l-.745-.1-.763-.062a7.62,7.62,0,0,0-.781-.036c-.268,0-.517-.022-.785,0h-.794c-.263,0-.517.049-.776.071-.509.036-1.013.129-1.5.2a10.082,10.082,0,0,0-1.392.312l-.638.165-.571.205c-.379.12-.714.25-1.017.37a8.344,8.344,0,0,0-.772.321l-.669.3.633-.37a7.383,7.383,0,0,1,.745-.393,8.2,8.2,0,0,1,1-.446l.571-.228.638-.205a14.168,14.168,0,0,1,1.4-.375c.245-.054.5-.089.754-.138a6.326,6.326,0,0,1,.781-.107c.263-.027.531-.058.8-.076l.794-.031h.812a4.742,4.742,0,0,1,.794.045l.767.085.754.12a13.444,13.444,0,0,1,1.414.33c.446.134.861.25,1.231.4l.54.205.473.214c.3.138.553.254.754.37Z" transform="translate(-372.524 151.361)"/>
    <path id="Trazado_47" data-name="Trazado 47" class="cls-2" d="M77.1,29.455l-.6-.245c-.187-.085-.419-.165-.687-.259s-.571-.2-.892-.294-.7-.192-1.084-.285-.8-.161-1.231-.228l-.651-.085-.674-.054a6.8,6.8,0,0,0-.683-.031c-.236,0-.446,0-.687,0h-.7l-.678.058c-.446.036-.892.116-1.338.178a8.453,8.453,0,0,0-1.218.268l-.553.165-.513.17c-.335.1-.629.219-.892.317s-.5.192-.678.281l-.589.259.558-.339c.174-.107.393-.223.651-.348a7.514,7.514,0,0,1,.892-.4l.513-.2L65.9,28.2a11.558,11.558,0,0,1,1.236-.335c.214-.049.446-.08.66-.125a5.319,5.319,0,0,1,.687-.094l.7-.067.7-.027H70.6a4.1,4.1,0,0,1,.7.04l.687.071.669.107a12.366,12.366,0,0,1,1.24.294,9.654,9.654,0,0,1,1.084.357l.473.183.415.192c.263.12.486.228.665.33Z" transform="translate(-373.776 148.791)"/>
    <path id="Trazado_48" data-name="Trazado 48" class="cls-2" d="M77.379,33.906l-.522-.187-.593-.259-.366-.138-.419-.107-.928-.25c-.33-.08-.691-.107-1.057-.174l-.558-.094-.58-.027c-.393,0-.79-.058-1.182-.045h-.6l-.584.049c-.384.031-.767.1-1.133.152a7.369,7.369,0,0,0-1.048.227l-.486.12-.446.143c-.285.089-.54.187-.772.272a5.939,5.939,0,0,0-.589.236L65,34.067l.473-.29a6.111,6.111,0,0,1,.567-.317,6.35,6.35,0,0,1,.745-.335l.446-.178.486-.161c.33-.12.691-.2,1.062-.294a6.949,6.949,0,0,1,1.169-.187l.607-.062.6-.022c.419,0,.821.045,1.222.062l.6.045.571.116a10.311,10.311,0,0,1,1.075.241l.937.326.415.147.348.178.567.29Z" transform="translate(-375.022 146.204)"/>
    <path id="Trazado_49" data-name="Trazado 49" class="cls-2" d="M77.677,38.361s-.161-.049-.446-.152l-.5-.183-.308-.112-.348-.089-.781-.205c-.277-.067-.584-.085-.892-.143l-.446-.071-.486-.027c-.326,0-.669-.049-.981-.031l-1.022.076a2.739,2.739,0,0,0-.482.058l-.446.08a6.526,6.526,0,0,0-.892.17l-.781.219a4.613,4.613,0,0,0-.651.223l-.5.192-.446.165s.143-.089.4-.236l.446-.263.294-.165a2.145,2.145,0,0,1,.339-.134l.8-.308a5.318,5.318,0,0,1,.892-.241l.486-.1.25-.049h.245l1.008-.071c.366,0,.7.036,1.035.049a2.119,2.119,0,0,1,.5.04l.482.094a8.5,8.5,0,0,1,.892.21l.785.281.348.125.29.152.473.25Z" transform="translate(-376.28 143.579)"/>
    <path id="Trazado_50" data-name="Trazado 50" class="cls-3" d="M76.452,55.164l1.4.736-.268-1.557,1.129-1.1-1.561-.228-.7-1.414-.7,1.414-1.561.228,1.129,1.1L75.055,55.9Z" transform="translate(-380.113 135.469)"/>
  </g>
</svg>
