<svg id="Capa_2" data-name="Capa 2" xmlns="http://www.w3.org/2000/svg" width="86.26" height="52" viewBox="0 0 86.26 52">
  <defs>
    <style>
      .cls-1 {
        fill: red;
      }

      .cls-2 {
        fill: #fff;
      }

      .cls-3 {
        fill: #ff0909;
      }
    </style>
  </defs>
  <g id="Texture">
    <path id="Trazado_31" data-name="Trazado 31" class="cls-1" d="M52.953,0A33.813,33.813,0,0,0,19.14,33.813H41.114a10.75,10.75,0,1,1,21.5,0H86.761A33.809,33.809,0,0,0,52.948,0Z" transform="translate(-8.722 0)"/>
    <path id="Trazado_32" data-name="Trazado 32" class="cls-2" d="M9.433,67,7.588,80.924H2.09L0,67H3.81q.675,5.753.958,9.738.278-4.028.593-7.147L5.612,67Z" transform="translate(0 -30.53)"/>
    <path id="Trazado_33" data-name="Trazado 33" class="cls-2" d="M23.456,67v1.813H19.88V67Zm0,2.509V80.94H19.88V69.509Z" transform="translate(-9.059 -30.53)"/>
    <path id="Trazado_34" data-name="Trazado 34" class="cls-2" d="M33.888,71.445l-.06,1.051a2.591,2.591,0,0,1,.92-.942,2.461,2.461,0,0,1,1.263-.316,2.4,2.4,0,0,1,1.459.419,1.883,1.883,0,0,1,.735,1.083,9.765,9.765,0,0,1,.163,2.139v7.974H34.89v-7.9a7.076,7.076,0,0,0-.076-1.432c-.049-.174-.2-.261-.43-.261a.43.43,0,0,0-.463.3,7.315,7.315,0,0,0-.093,1.584v7.713H30.35V71.423Z" transform="translate(-13.83 -32.461)"/>
    <path id="Trazado_35" data-name="Trazado 35" class="cls-2" d="M55.547,71.611l-1,8.252c-.152,1.306-.288,2.177-.392,2.673a2.918,2.918,0,0,1-.544,1.181,2.079,2.079,0,0,1-1.029.68,7.168,7.168,0,0,1-2.1.223h-2.09V82.8a3.985,3.985,0,0,0,1.029-.093.343.343,0,0,0,.234-.365c0-.093-.071-.49-.212-1.2L47.54,71.6h3.152l1.143,7.7.544-7.7Z" transform="translate(-21.663 -32.627)"/>
    <path id="Trazado_36" data-name="Trazado 36" class="cls-2" d="M68.582,67V80.924H65V67Z" transform="translate(-29.619 -30.53)"/>
    <path id="Trazado_37" data-name="Trazado 37" class="cls-2" d="M90.414,70.971H87.055V69.936a2,2,0,0,0-.131-.92.479.479,0,0,0-.43-.2.544.544,0,0,0-.5.267,1.557,1.557,0,0,0-.169.806,2.286,2.286,0,0,0,.185,1.051,2.754,2.754,0,0,0,1.023.855,10.266,10.266,0,0,1,3.043,2.351,5.387,5.387,0,0,1,.631,2.967,5.28,5.28,0,0,1-.348,2.177,2.722,2.722,0,0,1-1.35,1.181,5.345,5.345,0,0,1-2.319.479,5.225,5.225,0,0,1-2.482-.544A2.722,2.722,0,0,1,82.87,79a7.18,7.18,0,0,1-.316-2.417v-.9h3.358v1.693a2.275,2.275,0,0,0,.142,1.007.544.544,0,0,0,.506.223.588.588,0,0,0,.544-.283,1.633,1.633,0,0,0,.18-.844,2.6,2.6,0,0,0-.337-1.633,10.6,10.6,0,0,0-1.693-1.268,17.235,17.235,0,0,1-1.791-1.3A3.1,3.1,0,0,1,82.75,72.2a4.964,4.964,0,0,1-.288-1.823,5.073,5.073,0,0,1,.408-2.341,2.722,2.722,0,0,1,1.323-1.154,5.247,5.247,0,0,1,2.177-.419,5.688,5.688,0,0,1,2.4.457,2.5,2.5,0,0,1,1.317,1.149,5.988,5.988,0,0,1,.321,2.351Z" transform="translate(-37.571 -30.282)"/>
    <path id="Trazado_38" data-name="Trazado 38" class="cls-2" d="M104.339,68.82v1.8h.936v1.807h-.936v6.107a3.309,3.309,0,0,0,.114,1.252c.076.087.4.131.969.131v1.84h-1.4a10.1,10.1,0,0,1-1.693-.1,1.78,1.78,0,0,1-.893-.457,1.524,1.524,0,0,1-.484-.816,15.061,15.061,0,0,1-.093-2.177V72.423h-.746V70.616h.746v-1.8Z" transform="translate(-45.618 -31.36)"/>
    <path id="Trazado_39" data-name="Trazado 39" class="cls-2" d="M120.389,75.461v2.792a11.72,11.72,0,0,1-.158,2.259,3.152,3.152,0,0,1-.659,1.339,2.95,2.95,0,0,1-1.3.92,5.155,5.155,0,0,1-1.829.3,6.532,6.532,0,0,1-1.954-.256,2.667,2.667,0,0,1-1.241-.762,3.049,3.049,0,0,1-.631-1.241,9.319,9.319,0,0,1-.191-2.177V75.7a7.2,7.2,0,0,1,.343-2.488,2.869,2.869,0,0,1,1.241-1.432,4.311,4.311,0,0,1,2.286-.544,5.2,5.2,0,0,1,2.009.348,3.146,3.146,0,0,1,1.916,2.058,7.044,7.044,0,0,1,.169,1.818Zm-3.473-.86a3.68,3.68,0,0,0-.1-1.089.387.387,0,0,0-.4-.229.408.408,0,0,0-.414.229,3.609,3.609,0,0,0-.1,1.089V79.75A3.467,3.467,0,0,0,116,80.8a.474.474,0,0,0,.816,0,2.973,2.973,0,0,0,.1-.963Z" transform="translate(-51.227 -32.459)"/>
    <path id="Trazado_40" data-name="Trazado 40" class="cls-2" d="M134.248,71.447l-.136,1.5a2.572,2.572,0,0,1,2.177-1.709v4.017a2.879,2.879,0,0,0-1.4.256,1.089,1.089,0,0,0-.544.719,12.594,12.594,0,0,0-.1,2.117v4.507H130.77V71.425Z" transform="translate(-59.589 -32.462)"/>
    <path id="Trazado_41" data-name="Trazado 41" class="cls-2" d="M151.731,77.349h-4.5v2.466a2.721,2.721,0,0,0,.114,1,.441.441,0,0,0,.43.223.544.544,0,0,0,.544-.3,3.267,3.267,0,0,0,.136-1.149v-1.5h3.266v.844a7.665,7.665,0,0,1-.131,1.633,3.266,3.266,0,0,1-.637,1.2,3.059,3.059,0,0,1-1.241.969,4.834,4.834,0,0,1-1.883.321,5.443,5.443,0,0,1-1.943-.321,3.07,3.07,0,0,1-1.312-.871,3.206,3.206,0,0,1-.653-1.219,7.947,7.947,0,0,1-.18-1.938V75.379a5.7,5.7,0,0,1,.4-2.357,2.776,2.776,0,0,1,1.366-1.323,4.6,4.6,0,0,1,2.112-.463,4.719,4.719,0,0,1,2.411.544,3.043,3.043,0,0,1,1.334,1.47,6.88,6.88,0,0,1,.381,2.575Zm-3.495-1.856V74.66a4.028,4.028,0,0,0-.1-1.143.37.37,0,0,0-.386-.261c-.24,0-.386.076-.446.218a4.734,4.734,0,0,0-.087,1.187v.833Z" transform="translate(-65.499 -32.459)"/>
    <path id="Trazado_42" data-name="Trazado 42" d="M51.38,8.395l1.149-.653c.185-.1.386-.218.615-.332l.751-.354.849-.408c.3-.131.631-.245.969-.381s.686-.278,1.056-.4l1.154-.37.6-.191.626-.158,1.274-.31L61.793,4.6l.7-.114.708-.071c.474-.049.953-.109,1.432-.142l1.453-.054c.484-.027.98,0,1.453,0a12.694,12.694,0,0,1,1.432.082l1.415.142,1.366.218a12.428,12.428,0,0,1,1.312.261c.425.109.844.185,1.246.3.795.245,1.557.441,2.232.713l.974.359c.3.12.588.261.86.376.544.24,1.007.441,1.377.648l1.17.621L79.707,7.4a12.75,12.75,0,0,0-1.4-.544c-.278-.1-.544-.218-.876-.321l-.98-.316c-.675-.245-1.442-.408-2.232-.626-.4-.1-.816-.169-1.241-.256s-.833-.152-1.279-.218l-1.35-.2L68.956,4.8c-.463-.049-.942-.049-1.421-.06a13.953,13.953,0,0,0-1.432,0l-1.426.038c-.474,0-.947.082-1.415.12l-.7.065-.691.1-1.344.212-1.29.283-.626.136-.6.169-1.154.321c-.37.114-.724.245-1.089.359s-.67.229-.974.343l-.86.348-.762.31c-.229.1-.435.207-.626.294Z" transform="translate(-23.413 -1.917)"/>
    <path id="Trazado_43" data-name="Trazado 43" d="M80.833,12.386h0L79.2,11.673l-1.633-.621c-.544-.174-1.089-.365-1.677-.544a17.247,17.247,0,0,0-1.7-.419c-.572-.114-1.143-.25-1.72-.332s-1.154-.185-1.742-.229-1.159-.12-1.747-.12-1.17-.049-1.747,0-1.181,0-1.758.065-1.159.087-1.742.174-1.154.163-1.726.283-1.149.229-1.715.37-1.138.3-1.693.474l-1.666.572-1.633.659-1.649.74,1.54-.871,1.6-.762c.544-.229,1.089-.43,1.633-.642s1.132-.365,1.693-.544,1.149-.294,1.731-.43,1.165-.207,1.753-.31,1.181-.131,1.774-.2,1.2-.049,1.791-.1a12.236,12.236,0,0,1,1.785.033c.593.033,1.187.1,1.78.147s1.17.169,1.758.256,1.165.24,1.742.37,1.143.332,1.709.5,1.116.4,1.677.6,1.089.479,1.633.713l1.426.784.169.109" transform="translate(-24.447 -4.036)"/>
    <path id="Trazado_44" data-name="Trazado 44" d="M80.65,16.748l-1.018-.441c-.321-.152-.724-.3-1.181-.468l-.724-.267-.822-.261c-.544-.2-1.2-.343-1.867-.512-.332-.093-.686-.142-1.034-.212s-.713-.152-1.089-.2l-1.127-.158-1.165-.1c-.392-.044-.784-.044-1.181-.054a10.886,10.886,0,0,0-1.192,0l-1.208.033c-.4,0-.784.065-1.176.1s-.773.082-1.154.142-.762.109-1.127.18c-.729.174-1.448.283-2.107.484l-.963.261-.887.3c-.577.18-1.089.386-1.54.572l-.637.25-.544.245-1.007.463.963-.544.512-.283.631-.294a13.473,13.473,0,0,1,1.513-.664l.887-.343.991-.327a21.773,21.773,0,0,1,2.117-.544c.376-.076.757-.131,1.143-.2a11.86,11.86,0,0,1,1.181-.163c.4-.038.8-.087,1.2-.114l1.208-.049H69.47a6.927,6.927,0,0,1,1.208.071l1.181.114,1.149.18a10.994,10.994,0,0,1,1.089.223c.348.082.713.152,1.04.261.67.2,1.306.376,1.872.6l.816.3.719.327c.446.2.838.376,1.149.544Z" transform="translate(-25.472 -6.188)"/>
    <path id="Trazado_45" data-name="Trazado 45" d="M80.518,21.134l-.92-.392a11.382,11.382,0,0,0-1.089-.419l-.659-.24-.713-.229c-.512-.18-1.089-.31-1.687-.463-.3-.082-.615-.125-.936-.191s-.642-.136-.974-.174l-1.018-.142L71.471,18.8c-.354-.038-.713-.038-1.089-.049a10.375,10.375,0,0,0-1.089,0l-1.089.027c-.359,0-.713.06-1.089.087a9.45,9.45,0,0,0-1.045.131c-.343.054-.68.093-1.012.158-.659.158-1.306.25-1.9.43l-.876.234-.8.267c-.517.163-.98.348-1.388.512l-.517.245-.474.218-.914.414.865-.5.463-.261.544-.272a12.715,12.715,0,0,1,1.366-.6l.8-.31.871-.278a18.166,18.166,0,0,1,1.916-.506c.337-.071.686-.12,1.034-.185a10.741,10.741,0,0,1,1.089-.147c.386-.033.729-.076,1.089-.1l1.089-.044H70.4a6.154,6.154,0,0,1,1.089.065l1.089.109,1.034.163a9.381,9.381,0,0,1,.991.2c.321.082.642.136.942.234.6.185,1.176.343,1.687.544l.735.272.648.294c.408.185.757.348,1.034.506Z" transform="translate(-26.516 -8.321)"/>
    <path id="Trazado_46" data-name="Trazado 46" d="M80.4,25.506l-.822-.343c-.261-.12-.582-.24-.953-.37l-.588-.2-.664-.2c-.457-.158-.969-.272-1.508-.408-.261-.071-.544-.109-.833-.163s-.544-.12-.871-.152l-.909-.12-.931-.076a9.3,9.3,0,0,0-.953-.044c-.327,0-.631-.027-.958,0h-.969c-.321,0-.631.06-.947.087-.621.044-1.236.158-1.829.245a12.3,12.3,0,0,0-1.7.381l-.778.2-.7.25c-.463.147-.871.3-1.241.452a10.181,10.181,0,0,0-.942.392l-.816.365.773-.452a9.008,9.008,0,0,1,.909-.479,10.01,10.01,0,0,1,1.219-.544l.7-.278.778-.25a17.287,17.287,0,0,1,1.709-.457c.3-.065.61-.109.92-.169a7.719,7.719,0,0,1,.953-.131c.321-.033.648-.071.974-.093l.969-.038h.991a5.786,5.786,0,0,1,.969.054l.936.1.92.147a16.4,16.4,0,0,1,1.726.4c.544.163,1.051.3,1.5.49l.659.25.577.261c.365.169.675.31.92.452Z" transform="translate(-27.564 -10.44)"/>
    <path id="Trazado_47" data-name="Trazado 47" d="M80.255,29.874l-.729-.3c-.229-.1-.512-.2-.838-.316s-.7-.24-1.089-.359-.855-.234-1.323-.348-.98-.2-1.5-.278l-.795-.1-.822-.065a8.3,8.3,0,0,0-.833-.038c-.288-.005-.544,0-.838,0h-.855l-.827.071c-.544.044-1.089.142-1.633.218a10.315,10.315,0,0,0-1.486.327l-.675.2-.626.207c-.408.125-.767.267-1.089.386s-.6.234-.827.343l-.719.316.68-.414c.212-.131.479-.272.795-.425a9.168,9.168,0,0,1,1.089-.484l.626-.245.653-.229a14.1,14.1,0,0,1,1.508-.408c.261-.06.544-.1.806-.152a6.491,6.491,0,0,1,.838-.114l.86-.082.855-.033h.871a5,5,0,0,1,.855.049l.838.087.816.131a15.09,15.09,0,0,1,1.513.359,11.781,11.781,0,0,1,1.323.435l.577.223.506.234c.321.147.593.278.811.4Z" transform="translate(-28.594 -12.554)"/>
    <path id="Trazado_48" data-name="Trazado 48" d="M80.1,34.278l-.637-.229-.724-.316-.446-.169-.512-.131-1.132-.3c-.4-.1-.844-.131-1.29-.212l-.68-.114-.708-.033c-.479,0-.963-.071-1.442-.054H71.8l-.713.06c-.468.038-.936.12-1.383.185a8.991,8.991,0,0,0-1.279.278l-.593.147-.544.174c-.348.109-.659.229-.942.332a7.249,7.249,0,0,0-.719.288L65,34.473l.577-.354a7.457,7.457,0,0,1,.691-.386,7.747,7.747,0,0,1,.909-.408l.544-.218.593-.2c.4-.147.844-.245,1.3-.359a8.48,8.48,0,0,1,1.426-.229l.74-.076.735-.027c.512,0,1,.054,1.491.076l.729.054.7.142a12.58,12.58,0,0,1,1.312.294l1.143.4.506.18.425.218.691.354Z" transform="translate(-29.619 -14.682)"/>
    <path id="Trazado_49" data-name="Trazado 49" d="M79.969,38.669s-.2-.06-.544-.185l-.615-.223-.376-.136-.425-.109-.953-.25c-.337-.082-.713-.1-1.089-.174l-.544-.087-.593-.033c-.4,0-.816-.06-1.2-.038l-1.246.093a3.342,3.342,0,0,0-.588.071l-.544.1a7.964,7.964,0,0,0-1.089.207l-.953.267a5.628,5.628,0,0,0-.795.272l-.6.234-.544.2s.174-.109.49-.288l.544-.321.359-.2a2.618,2.618,0,0,1,.414-.163l.98-.376a6.489,6.489,0,0,1,1.089-.294l.593-.125.3-.06h.3l1.23-.087c.446,0,.849.044,1.263.06a2.585,2.585,0,0,1,.615.049l.588.114a10.369,10.369,0,0,1,1.089.256l.958.343.425.152.354.185.577.3Z" transform="translate(-30.653 -16.842)"/>
    <path id="Trazado_50" data-name="Trazado 50" class="cls-3" d="M76.95,55.949l1.7.9-.327-1.9L79.7,53.6,77.8,53.326,76.95,51.6,76.1,53.326,74.19,53.6l1.377,1.344-.321,1.9Z" transform="translate(-33.807 -23.513)"/>
  </g>
</svg>
