<svg xmlns="http://www.w3.org/2000/svg" width="29.287" height="25.741" viewBox="0 0 29.287 25.741"><defs><style>.a{fill:#fff;}</style></defs><path class="a" d="M9.5,17.161H25a.855.855,0,0,0,.824-.623L29.254,4.526a.857.857,0,0,0-.825-1.094H7.514L6.9.672A.858.858,0,0,0,6.063,0H.858a.858.858,0,1,0,0,1.716H5.375l3.1,13.943A2.572,2.572,0,0,0,9.5,20.593H25a.858.858,0,1,0,0-1.716H9.5a.858.858,0,0,1,0-1.716Zm0,0" transform="translate(0 0)"/><path class="a" d="M151,362.578A2.574,2.574,0,1,0,153.574,360,2.577,2.577,0,0,0,151,362.578Zm0,0" transform="translate(-142.363 -339.411)"/><path class="a" d="M362,362.578A2.574,2.574,0,1,0,364.578,360,2.577,2.577,0,0,0,362,362.578Zm0,0" transform="translate(-341.297 -339.411)"/></svg>