<svg id="shopping-cart" xmlns="http://www.w3.org/2000/svg" width="469.333" height="469.334" viewBox="0 0 469.333 469.334">
  <defs>
    <style>
      .cls-1 {
        fill: #fff;
      }
    </style>
  </defs>
  <g id="Grupo_36" data-name="Grupo 36">
    <g id="Grupo_35" data-name="Grupo 35">
      <path id="Trazado_95" data-name="Trazado 95" class="cls-1" d="M434.979,42.667H85.333a10.451,10.451,0,0,0-3,.693L73.738,15.119A21.329,21.329,0,0,0,53.333,0H10.667A10.667,10.667,0,0,0,0,10.667V32A10.667,10.667,0,0,0,10.667,42.667H37.532l66.646,219.01L79.287,290.716c-9.838,11.477-14.268,27.291-9.74,41.713a42.4,42.4,0,0,0,40.839,30.237H416A10.667,10.667,0,0,0,426.667,352V330.666A10.667,10.667,0,0,0,416,320H110.385L144.2,280.551a21.164,21.164,0,0,0,2.12-3.219h206.7a42.681,42.681,0,0,0,38.618-24.507l74.434-158.17a34.636,34.636,0,0,0,3.26-14.615V77.019A34.354,34.354,0,0,0,434.979,42.667Z"/>
      <circle id="Elipse_6" data-name="Elipse 6" class="cls-1" cx="42.667" cy="42.667" r="42.667" transform="translate(85.333 384)"/>
      <circle id="Elipse_7" data-name="Elipse 7" class="cls-1" cx="42.667" cy="42.667" r="42.667" transform="translate(341.333 384)"/>
    </g>
  </g>
</svg>
